HIERARCHY
ROOT Hips
{
 OFFSET 0.000000 0.000000 0.000000
 CHANNELS 6 Xposition Yposition Zposition Yrotation Xrotation Zrotation
 JOINT Chest
 {
  OFFSET 0.000000 9.581000 -0.001100
  CHANNELS 3 Yrotation Xrotation Zrotation
  JOINT Chest2
  {
   OFFSET 0.000000 9.561100 0.002200
   CHANNELS 3 Yrotation Xrotation Zrotation
   JOINT Chest3
   {
    OFFSET 0.000000 9.521100 0.000000
    CHANNELS 3 Yrotation Xrotation Zrotation
    JOINT Chest4
    {
     OFFSET 0.000000 9.511400 0.000000
     CHANNELS 3 Yrotation Xrotation Zrotation
     JOINT Neck
     {
      OFFSET 0.000000 14.375100 0.000000
      CHANNELS 3 Yrotation Xrotation Zrotation
      JOINT Head
      {
       OFFSET 0.000000 8.901200 0.004600
       CHANNELS 3 Yrotation Xrotation Zrotation
       End Site
       {
        OFFSET 0.000000 16.962200 0.002400
       }
      }
     }
     JOINT RightCollar
     {
      OFFSET -2.920100 9.518800 0.000000
      CHANNELS 3 Yrotation Xrotation Zrotation
      JOINT RightShoulder
      {
       OFFSET -13.664500 0.000000 0.000000
       CHANNELS 3 Yrotation Xrotation Zrotation
       JOINT RightElbow
       {
        OFFSET 0.000000 -29.999200 0.000000
        CHANNELS 3 Yrotation Xrotation Zrotation
        JOINT RightWrist
        {
         OFFSET 0.000000 -24.253600 0.000000
         CHANNELS 3 Yrotation Xrotation Zrotation
         End Site
         {
          OFFSET 0.000000 -17.918900 0.000000
         }
        }
       }
      }
     }
     JOINT LeftCollar
     {
      OFFSET 2.920100 9.518800 0.000000
      CHANNELS 3 Yrotation Xrotation Zrotation
      JOINT LeftShoulder
      {
       OFFSET 13.664500 0.000000 0.000000
       CHANNELS 3 Yrotation Xrotation Zrotation
       JOINT LeftElbow
       {
        OFFSET 0.000000 -29.999200 0.000000
        CHANNELS 3 Yrotation Xrotation Zrotation
        JOINT LeftWrist
        {
         OFFSET 0.000000 -24.253600 0.000000
         CHANNELS 3 Yrotation Xrotation Zrotation
         End Site
         {
          OFFSET 0.000000 -17.918900 0.000000
         }
        }
       }
      }
     }
    }
   }
  }
 }
 JOINT RightHip
 {
  OFFSET -7.797300 0.005300 0.000500
  CHANNELS 3 Yrotation Xrotation Zrotation
  JOINT RightKnee
  {
   OFFSET 0.000000 -40.663400 -0.000500
   CHANNELS 3 Yrotation Xrotation Zrotation
   JOINT RightAnkle
   {
    OFFSET 0.000000 -39.523700 -0.000900
    CHANNELS 3 Yrotation Xrotation Zrotation
    JOINT RightToe
    {
     OFFSET 0.000000 -6.418000 14.485300
     CHANNELS 3 Yrotation Xrotation Zrotation
     End Site
     {
      OFFSET 0.000000 -1.465200 6.326400
     }
    }
   }
  }
 }
 JOINT LeftHip
 {
  OFFSET 7.797300 0.005300 0.000500
  CHANNELS 3 Yrotation Xrotation Zrotation
  JOINT LeftKnee
  {
   OFFSET 0.000000 -40.663400 -0.000500
   CHANNELS 3 Yrotation Xrotation Zrotation
   JOINT LeftAnkle
   {
    OFFSET 0.000000 -39.523700 -0.000900
    CHANNELS 3 Yrotation Xrotation Zrotation
    JOINT LeftToe
    {
     OFFSET 0.000000 -6.418000 14.485300
     CHANNELS 3 Yrotation Xrotation Zrotation
     End Site
     {
      OFFSET 0.000000 -1.465200 6.326400
     }
    }
   }
  }
 }
}
MOTION
Frames: 11
Frame Time: 0.008333
0.000000 86.422400 0.000000 0.000000 -5.767877 0.000000 0.000000 11.653817 0.000000 0.000000 -5.885947 0.000000 0.000000 -0.000000 0.000000 0.000000 -0.000000 0.000000 0.000000 12.528835 0.000000 0.000000 0.711642 0.000000 0.000000 -0.000000 0.000000 0.000000 0.000000 -90.000000 0.000000 -2.309062 0.000000 0.000000 2.309062 0.000000 0.000000 -0.000000 0.000000 0.000000 -0.000000 90.000000 0.000000 -2.309062 0.000000 0.000000 2.309062 0.000000 0.000000 8.520406 0.000000 0.000000 1.905762 0.000000 -0.000000 -4.658285 0.000000 0.000000 -0.000000 0.000000 0.000000 8.520406 0.000000 0.000000 1.905762 0.000000 -0.000000 -4.658285 0.000000 0.000000 -0.000000 0.000000
-15.284683 126.875933 17.741621 172.189920 -44.407897 -4.446886 3.418537 24.628636 3.159878 0.435578 3.888622 0.389680 0.711297 6.224967 0.639380 2.705940 20.420680 2.491188 -1.813975 20.994397 0.129123 -1.966479 -3.388463 0.551895 -0.257580 1.542475 2.196448 1.946359 -8.388142 -14.688273 -95.747248 -67.385647 142.403157 7.061258 11.189890 8.373068 -9.649520 -0.767454 0.917819 -8.871422 -8.668994 16.277586 51.988845 -53.950558 -102.579615 3.737322 -13.663128 6.359352 -3.764680 -24.939709 1.268002 -50.491289 86.298938 -52.447656 6.899501 -12.907855 3.100733 -0.001098 -0.001083 -0.000487 -0.041586 -26.714868 0.746149 38.727515 83.860505 43.476767 -0.605183 -17.274194 -3.672525 0.001065 -0.000010 0.000472
-15.284561 126.876096 17.741755 172.187916 -44.409737 -4.440627 3.424238 24.611087 3.170074 0.436506 3.882852 0.390416 0.702822 6.234501 0.633452 2.712137 20.418462 2.492753 -1.590001 20.976637 0.098330 -1.723698 -3.407228 0.468063 -0.213749 1.525222 2.258616 1.836929 -8.453029 -14.634953 -94.952015 -67.663124 141.431247 7.053543 11.157020 8.422139 -9.680277 -0.728057 0.893463 -8.683646 -8.716896 16.211197 51.958676 -54.292677 -102.068008 3.667960 -13.422996 6.290937 -3.764559 -24.937978 1.264141 -50.492613 86.296964 -52.454287 6.906933 -12.907627 3.104770 -0.001437 -0.000949 -0.000637 -0.045567 -26.711259 0.739617 38.757140 83.857308 43.502925 -0.603733 -17.275182 -3.672732 -0.001034 0.000866 -0.000458
-15.284271 126.876077 17.742182 172.189409 -44.410190 -4.436937 3.429708 24.600286 3.174551 0.437126 3.879789 0.390753 0.711712 6.216273 0.639795 2.693736 20.444861 2.486745 -1.352531 20.945194 0.067442 -1.476910 -3.426273 0.383530 -0.163012 1.509425 2.322423 1.722089 -8.522288 -14.587248 -94.169179 -67.960094 140.436187 7.061607 11.145385 8.446013 -9.706252 -0.694747 0.870247 -8.470404 -8.785091 16.136786 51.883587 -54.665924 -101.464451 3.584696 -13.168880 6.221900 -3.768124 -24.937845 1.263459 -50.473926 86.297933 -52.444113 6.909241 -12.908918 3.107961 -0.001467 -0.001662 -0.000650 -0.052811 -26.709280 0.733970 38.707679 83.854921 43.457463 -0.598233 -17.271435 -3.679617 0.002350 0.000951 0.001041
-15.284115 126.875918 17.742786 172.188702 -44.410233 -4.430106 3.435641 24.591648 3.175583 0.441587 3.872261 0.392413 0.715519 6.206121 0.641422 2.689996 20.445642 2.489469 -1.123508 20.928334 0.032171 -1.231525 -3.445348 0.299204 -0.129710 1.526592 2.373210 1.594398 -8.619430 -14.516173 -93.400786 -68.315218 139.418203 7.091644 11.146873 8.449573 -9.749601 -0.636271 0.837071 -8.225459 -8.879758 16.056467 51.742954 -55.070896 -100.746800 3.482934 -12.912380 6.147248 -3.766781 -24.939227 1.261860 -50.383558 86.299791 -52.365249 6.910293 -12.907116 3.115643 -0.002394 -0.003325 -0.001061 -0.060711 -26.708665 0.729667 38.706455 83.852703 43.450229 -0.595012 -17.269253 -3.681373 0.002946 0.001017 0.001305
-15.283985 126.875767 17.743455 172.187593 -44.411167 -4.422124 3.436626 24.589897 3.170718 0.453683 3.854945 0.395986 0.717897 6.199027 0.641686 2.694517 20.445142 2.493770 -0.902117 20.904721 -0.002601 -0.992427 -3.464312 0.215722 -0.114755 1.549848 2.415369 1.457454 -8.734755 -14.424783 -92.692241 -68.741806 138.405295 7.147549 11.157732 8.444592 -9.809468 -0.568754 0.794557 -7.942911 -9.010831 15.976133 51.516823 -55.512835 -99.895228 3.352915 -12.661349 6.062420 -3.765681 -24.938160 1.261942 -50.331518 86.297260 -52.322256 6.898791 -12.907368 3.122852 -0.002373 -0.003304 -0.001051 -0.068909 -26.705794 0.719358 38.732351 83.843788 43.471922 -0.590415 -17.265279 -3.684765 0.001724 0.001858 0.000764
-15.283201 126.875583 17.744438 172.187714 -44.412466 -4.418488 3.448950 24.575005 3.178498 0.455938 3.846506 0.394347 0.720910 6.190591 0.641832 2.736998 20.392028 2.501599 -0.722430 20.927162 -0.029280 -0.763441 -3.486054 0.133566 -0.163555 1.631769 2.442780 1.325565 -8.862377 -14.299051 -92.069101 -69.247513 137.414638 7.237071 11.184056 8.434918 -9.915933 -0.434940 0.741125 -7.618851 -9.191809 15.902292 51.192897 -56.003423 -98.900272 3.179121 -12.418580 5.968516 -3.762303 -24.933782 1.265715 -50.261739 86.292843 -52.257365 6.881402 -12.908645 3.130309 -0.003384 -0.001368 -0.001499 -0.070814 -26.703098 0.714469 38.708748 83.837025 43.449188 -0.590543 -17.260432 -3.687304 0.001302 0.002734 0.000577
-15.282150 126.875234 17.745814 172.187374 -44.413681 -4.415765 3.462902 24.556660 3.184311 0.459540 3.839150 0.397753 0.724085 6.182102 0.642172 2.749887 20.379122 2.505719 -0.530228 20.904581 -0.065757 -0.550147 -3.513816 0.050873 -0.100024 1.678910 2.553764 1.110466 -9.003939 -14.250211 -91.530167 -69.835886 136.444513 7.368769 11.243017 8.410045 -9.991635 -0.322936 0.687025 -7.261991 -9.436775 15.832847 50.757825 -56.558903 -97.745947 2.937637 -12.185643 5.862136 -3.763362 -24.929491 1.276665 -50.223064 86.282908 -52.230673 6.869346 -12.910240 3.135642 -0.002384 0.000677 -0.001056 -0.071449 -26.700615 0.712124 38.665879 83.830940 43.405414 -0.589657 -17.255313 -3.687569 0.000275 0.004107 0.000122
-15.282139 126.874877 17.747159 172.180986 -44.417421 -4.401775 3.477569 24.539100 3.186742 0.469232 3.832526 0.398120 0.711147 6.191987 0.639980 2.780420 20.348457 2.512733 -0.360819 20.877057 -0.108571 -0.359701 -3.546572 -0.033380 -0.063218 1.738467 2.642238 0.904199 -9.168433 -14.165852 -91.071946 -70.511942 135.495341 7.547600 11.348390 8.354951 -10.057907 -0.193832 0.646148 -6.879647 -9.749646 15.753608 50.184790 -57.201853 -96.393518 2.609685 -11.963057 5.721648 -3.753773 -24.927316 1.269994 -50.167991 86.281789 -52.183648 6.865456 -12.910058 3.141207 -0.004414 0.001740 -0.001956 -0.063352 -26.696197 0.702118 38.603681 83.825666 43.341939 -0.590392 -17.248963 -3.683413 -0.000090 0.004238 -0.000040
-15.281920 126.874355 17.748991 172.188070 -44.421221 -4.397744 3.516518 24.500273 3.210085 0.455756 3.843761 0.394399 0.722378 6.175122 0.643322 2.791208 20.344292 2.522020 -0.219222 20.848690 -0.157604 -0.197582 -3.579754 -0.117874 -0.042316 1.797629 2.720734 0.689982 -9.344294 -14.057706 -90.694902 -71.281719 134.573774 7.783848 11.505230 8.263663 -10.118952 -0.056113 0.622888 -6.474602 -10.119211 15.654951 49.431580 -57.944329 -94.793610 2.192295 -11.760621 5.513890 -3.752005 -24.926045 1.264665 -50.199791 86.279934 -52.218908 6.861257 -12.909441 3.143821 -0.004328 0.001148 -0.001918 -0.065161 -26.693422 0.694333 38.547931 83.821872 43.282982 -0.591716 -17.244003 -3.679320 -0.000898 0.003654 -0.000398
-15.281364 126.873647 17.751418 172.195747 -44.425904 -4.395245 3.553487 24.469311 3.234640 0.451640 3.844760 0.394396 0.737695 6.158514 0.647542 2.803481 20.340837 2.534609 -0.106762 20.824932 -0.213300 -0.065080 -3.607238 -0.202773 -0.021485 1.847722 2.806000 0.451028 -9.529412 -13.945884 -90.388295 -72.154467 133.675849 8.087734 11.713079 8.148827 -10.177415 0.073341 0.608844 -6.059780 -10.526453 15.538408 48.444601 -58.770622 -92.893009 1.693853 -11.607165 5.218666 -3.745729 -24.925240 1.264826 -50.321698 86.272875 -52.339932 6.845115 -12.909971 3.143702 -0.004057 -0.000668 -0.001797 -0.068357 -26.691048 0.689747 38.520486 83.819299 43.250103 -0.595087 -17.239213 -3.675464 -0.002091 0.003699 -0.000926
